<svg width="109" height="168" viewBox="0 0 109 168" fill="none" xmlns="http://www.w3.org/2000/svg">
<path d="M0.32373 150.176V18.7852C0.32373 8.92381 6.99276 0.928589 15.2219 0.928589H98.1507C103.88 0.928589 108.525 6.49556 108.525 13.3629V136.636C107.355 143.854 46.6464 146.319 0.32373 150.176Z" fill="#565656"/>
<path d="M15.0965 0.928589V145.85L0.32373 150.176V18.7852C0.32373 8.92381 6.99275 0.928589 15.2219 0.928589" fill="black"/>
<path d="M101.237 140.804H105.043C106.964 140.804 108.521 138.938 108.521 136.636C108.521 134.334 106.964 132.468 105.043 132.468H15.0925C6.93302 132.468 0.319702 140.394 0.319702 150.174C0.319702 159.954 6.93302 167.88 15.0925 167.88H105.043C106.964 167.88 108.521 166.014 108.521 163.712C108.521 161.41 106.964 159.544 105.043 159.544H101.237V140.804Z" fill="black"/>
<path d="M32.2766 82.0105H82.5133C85.2048 82.0105 87.387 79.3949 87.387 76.169V39.9196C87.387 36.6937 85.2048 34.0781 82.5133 34.0781H32.2766C29.5852 34.0781 27.403 36.6937 27.403 39.9196V76.169C27.403 79.3949 29.5852 82.0105 32.2766 82.0105Z" fill="#F5CD94"/>
<path d="M16.0149 159.547H104.402V140.804H16.0149C11.6968 140.804 8.19592 145 8.19592 150.176C8.19592 155.351 11.6968 159.547 16.0149 159.547Z" fill="#F5CD94"/>
<path d="M84.9276 101.218H29.8607C28.5033 101.218 27.4014 99.8986 27.4014 98.2699C27.4014 96.6412 28.5018 95.3223 29.8607 95.3223H84.9276C86.2864 95.3223 87.3868 96.6412 87.3868 98.2699C87.3868 99.8986 86.2864 101.218 84.9276 101.218Z" fill="#F5CD94"/>
<path d="M84.9276 118.677H29.8607C28.5033 118.677 27.4014 117.358 27.4014 115.73C27.4014 114.101 28.5018 112.782 29.8607 112.782H84.9276C86.2864 112.782 87.3868 114.101 87.3868 115.73C87.3868 117.358 86.2864 118.677 84.9276 118.677Z" fill="#F5CD94"/>
</svg>
